<svg xmlns="http://www.w3.org/2000/svg" viewBox="0 0 24 24" role="img" aria-label="Lumio">
  <defs>
    <linearGradient id="lumio-favicon-gradient" x1="0%" y1="0%" x2="100%" y2="100%">
      <stop offset="0%" stop-color="#9D6E53" />
      <stop offset="52%" stop-color="#8B6249" />
      <stop offset="100%" stop-color="#7A5540" />
    </linearGradient>
  </defs>
  <path fill="url(#lumio-favicon-gradient)" d="M16.103 4.059H6.97c-.382 0-.795.301-.795.667v1.842c0 .37.413.667.795.667h5.304L3 15.705h4.463l9.868-8.809c1.059-1.059.291-2.837-1.228-2.837M7.897 19.94h9.397c.381 0 .53-.302.53-.667V17.43c0-.37-.149-.667-.53-.667h-5.57L21 8.294h-4.463l-9.868 8.81c-1.059 1.058-.291 2.837 1.228 2.837" />
</svg>
